<?xml version="1.0" encoding="UTF-8" standalone="no"?>
<!-- Created with Inkscape (http://www.inkscape.org/) -->

<svg
   width="50.000004pt"
   height="50pt"
   viewBox="0 0 17.638891 17.638889"
   version="1.1"
   id="svg5"
   xmlns="http://www.w3.org/2000/svg"
   xmlns:svg="http://www.w3.org/2000/svg">
  <defs
     id="defs2">
    <rect
       x="41.900684"
       y="93.815369"
       width="37.157211"
       height="59.293423"
       id="rect2108-9" />
    <rect
       x="74.841476"
       y="102.24821"
       width="38.211315"
       height="52.441738"
       id="rect2114-9" />
  </defs>
  <g
     id="layer1"
     transform="translate(-146.66272,-174.302)">
    <path
       style="fill:#212122;fill-opacity:1;fill-rule:evenodd;stroke:#212121;stroke-width:0.569778;stroke-linecap:round;stroke-linejoin:round;stroke-dasharray:none;stroke-opacity:1"
       id="rect2473"
       width="16.363556"
       height="16.363556"
       x="147.30038"
       y="174.93967"
       d="m 150.30038,174.93967 h 10.36356 a 3,3 45 0 1 3,3 l 0,10.36355 a 3,3 135 0 1 -3,3 h -10.36356 a 3,3 45 0 1 -3,-3 v -10.36355 a 3,3 135 0 1 3,-3 z" />
    <g
       id="g2354">
      <text
         xml:space="preserve"
         transform="matrix(0.26458334,0,0,0.26458334,137.29963,152.00024)"
         id="text2106-1"
         style="font-style:normal;font-variant:normal;font-weight:normal;font-stretch:normal;font-size:40px;line-height:1.25;font-family:'Gotham Black';-inkscape-font-specification:'Gotham Black, ';white-space:pre;shape-inside:url(#rect2108-9);display:inline;fill:#fefefe;fill-opacity:1;stroke:#fefefe;stroke-width:1.33333;stroke-linejoin:round;stroke-dasharray:none;stroke-opacity:1"><tspan
           x="41.900391"
           y="131.62344"
           id="tspan5551">S</tspan></text>
      <text
         xml:space="preserve"
         transform="matrix(0.26458334,0,0,0.26458334,135.32776,149.76885)"
         id="text2112-0"
         style="font-style:normal;font-variant:normal;font-weight:normal;font-stretch:normal;font-size:40px;line-height:1.25;font-family:'Gotham Black';-inkscape-font-specification:'Gotham Black, ';white-space:pre;shape-inside:url(#rect2114-9);display:inline;fill:#bab3ff;fill-opacity:1;stroke:#bab3ff;stroke-linejoin:round;stroke-opacity:1"><tspan
           x="74.841797"
           y="140.05704"
           id="tspan5553">H</tspan></text>
    </g>
  </g>
</svg>
