<?xml version="1.0" encoding="UTF-8" standalone="no"?>
<!-- Created with Inkscape (http://www.inkscape.org/) -->

<svg
   width="50.000008pt"
   height="50.000008pt"
   viewBox="0 0 17.638892 17.638892"
   version="1.1"
   id="svg5"
   xmlns="http://www.w3.org/2000/svg"
   xmlns:svg="http://www.w3.org/2000/svg">
  <defs
     id="defs2">
    <rect
       x="41.900684"
       y="93.815369"
       width="37.157211"
       height="59.293423"
       id="rect2108-2" />
    <rect
       x="74.841476"
       y="102.24821"
       width="38.211315"
       height="52.441738"
       id="rect2114-6" />
  </defs>
  <g
     id="layer1"
     transform="translate(-72.615117,-170.67632)">
    <path
       style="fill:#fefefe;fill-opacity:1;fill-rule:evenodd;stroke:#fefefe;stroke-width:0.569778;stroke-linecap:round;stroke-linejoin:round;stroke-dasharray:none;stroke-opacity:1"
       id="rect2473-2"
       width="16.363556"
       height="16.363556"
       x="73.252785"
       y="171.314"
       d="m 76.252785,171.314 h 10.363556 a 3,3 45 0 1 3,3 v 10.36355 a 3,3 135 0 1 -3,3 H 76.252785 a 3,3 45 0 1 -3,-3 V 174.314 a 3,3 135 0 1 3,-3 z" />
    <g
       id="g2365">
      <g
         id="g2358">
        <text
           xml:space="preserve"
           transform="matrix(0.26458334,0,0,0.26458334,63.252027,148.37457)"
           id="text2106-13"
           style="font-style:normal;font-variant:normal;font-weight:normal;font-stretch:normal;font-size:40px;line-height:1.25;font-family:'Gotham Black';-inkscape-font-specification:'Gotham Black, ';white-space:pre;shape-inside:url(#rect2108-2);display:inline;fill:#000000;fill-opacity:1;stroke:#000000;stroke-width:1.33333;stroke-linejoin:round;stroke-dasharray:none;stroke-opacity:1"><tspan
             x="41.900391"
             y="131.62344"
             id="tspan5424">S</tspan></text>
      </g>
      <text
         xml:space="preserve"
         transform="matrix(0.26458334,0,0,0.26458334,61.280156,146.14318)"
         id="text2112-1"
         style="font-style:normal;font-variant:normal;font-weight:normal;font-stretch:normal;font-size:40px;line-height:1.25;font-family:'Gotham Black';-inkscape-font-specification:'Gotham Black, ';white-space:pre;shape-inside:url(#rect2114-6);display:inline;fill:#8883d2;fill-opacity:1;stroke:#8883d2;stroke-linejoin:round;stroke-opacity:1"><tspan
           x="74.841797"
           y="140.05704"
           id="tspan5426">H</tspan></text>
    </g>
  </g>
</svg>
